<svg viewBox="0 0 24 24" fill="none" xmlns="http://www.w3.org/2000/svg">
  <path
    d="M13 2C16 5 22 10 22 15C22 19.1 17.5 23 12 23C6.5 23 2 19.1 2 15C2 10 8 5 11 2C10.5 4.5 11 7 13 8.5C12.5 6 12.5 4 13 2Z"
    fill="url(#fg-body)"
  />
  <path
    d="M12 10C13.5 12 16 14.5 16 17C16 18.7 14.2 20 12 20C9.8 20 8 18.7 8 17C8 14.5 10.5 12 12 10Z"
    fill="url(#fg-core)"
  />
  <line x1="13" y1="2" x2="14.5" y2="0.5" stroke="#fef3c7" stroke-width="1" stroke-linecap="round" opacity="0.7"/>
  <line x1="11" y1="1.5" x2="9.5" y2="0" stroke="#fef3c7" stroke-width="0.8" stroke-linecap="round" opacity="0.4"/>
  <defs>
    <linearGradient id="fg-body" x1="12" y1="2" x2="12" y2="23" gradientUnits="userSpaceOnUse">
      <stop offset="0%" stop-color="#fdba74"/>
      <stop offset="40%" stop-color="#f97316"/>
      <stop offset="100%" stop-color="#991b1b"/>
    </linearGradient>
    <linearGradient id="fg-core" x1="12" y1="10" x2="12" y2="20" gradientUnits="userSpaceOnUse">
      <stop offset="0%" stop-color="#fef9c3" stop-opacity="0.95"/>
      <stop offset="100%" stop-color="#fcd34d" stop-opacity="0.15"/>
    </linearGradient>
  </defs>
</svg>
